<svg width="1180" height="65" viewBox="0 0 312.208 17.198" xmlns="http://www.w3.org/2000/svg"><path style="fill:#4d4d4d;stroke-width:.700042" d="M0 0h312.208v17.198H0z"/><text xml:space="preserve" style="font-size:12.6854px;font-family:'American Typewriter';-inkscape-font-specification:'American Typewriter, Normal';white-space:pre;inline-size:42.046;display:inline;fill:red;stroke-width:.264583" x="40.271" y="56.631" transform="matrix(1.37862 0 0 1.37862 -39.353 -65.105)"><tspan x="40.271" y="56.631"><tspan style="font-style:italic;font-weight:600;font-family:'Avenir Next';-inkscape-font-specification:'Avenir Next, Semi-Bold Italic'">go Spines!!</tspan></tspan></text><path style="fill:red;stroke-width:.196257" d="M288.717 0h2.259v17.198h-2.259z"/><path style="fill:olive;stroke-width:.196257" d="M290.973 0h2.259v17.198h-2.259z"/><path style="fill:green;stroke-width:.196257" d="M293.23 0h2.259v17.198h-2.259z"/><path style="fill:#0f0;stroke-width:.196257" d="M295.487 0h2.259v17.198h-2.259z"/><path style="fill:red;stroke-width:.196257" d="M297.292 0h2.259v17.198h-2.259z"/><path style="fill:navy;stroke-width:.196257" d="M299.098 0h2.259v17.198h-2.259z"/><path style="fill:#ff0;stroke-width:.196257" d="M300.903 0h2.259v17.198h-2.259z"/><path style="fill:red;stroke-width:.196257" d="M302.709 0h2.259v17.198h-2.259z"/><path style="fill:#f0f;stroke-width:.196257" d="M302.709 0h2.259v17.198h-2.259z"/></svg>
